<svg xmlns="http://www.w3.org/2000/svg" viewBox="0 0 32 32" fill="none">
  <rect width="32" height="32" rx="8" fill="#080808"/>
  <path d="M16 5C11.5 5 8 8.8 8 13.5V24.5L10.5 22.5L13 24.5L16 22.5L19 24.5L21.5 22.5L24 24.5V13.5C24 8.8 20.5 5 16 5Z" fill="#10b981" opacity="0.15"/>
  <path d="M16 5C11.5 5 8 8.8 8 13.5V24.5L10.5 22.5L13 24.5L16 22.5L19 24.5L21.5 22.5L24 24.5V13.5C24 8.8 20.5 5 16 5Z" stroke="#10b981" stroke-width="1.5" stroke-linejoin="round"/>
  <circle cx="13" cy="14" r="1.5" fill="#10b981"/>
  <circle cx="19" cy="14" r="1.5" fill="#10b981"/>
</svg>
